# xmcd
#
# Track frame offsets:
#	150
#	10215
#	19657
#	32239
#	44230
#	58703
#	66660
#	76098
#	89496
#	98746
#	111340
#	120611
#
# Disc length: 1771 seconds
#
# Revision: 1
# Processed by: cddbd v1.5.2PL0 Copyright (c) Steve Scherf et al.
# Submitted via: audiograbber 1.83.01
#
DISCID=a306e90c
DTITLE=Dolly Parton - In The Good Old Days (When Times Were Bad)
DYEAR=1969
DGENRE=Country
TTITLE0=Don't Let It Trouble Your Mind
TTITLE1=He's A Go Getter
TTITLE2=In The Good Old Days (When Times Were Bad)
TTITLE3=It's My Time
TTITLE4=Harper Valley P.T.A.
TTITLE5=Little Bird
TTITLE6=Mine
TTITLE7=The Carroll County Accident
TTITLE8=Fresh Out Of Forgiveness
TTITLE9=Mama Say A Prayer
TTITLE10=Always The First Time
TTITLE11=D-I-V-O-R-C-E
EXTD=
EXTT0=
EXTT1=
EXTT2=
EXTT3=
EXTT4=
EXTT5=
EXTT6=
EXTT7=
EXTT8=
EXTT9=
EXTT10=
EXTT11=
PLAYORDER=
